PathFileType	4	(X/Y/Z)	G:\Shared drives\HPL_Drive\Pi-Spi Study\20230118_AMCsubject1\Trimmed_right_flex_18001_rotated.trc
DataRate	CameraRate	NumFrames	NumMarkers	Units	OrigDataRate	OrigDataStartFrame	OrigNumFrames
200.00	200.00	       9	35	mm	200.00	26	       200
Frame#	Time	C7			Sternum			r_AMC1			r_AMC2			r_AMC3			l_AMC1			l_AMC2			l_AMC3			PX			T8			r_humerous			r_elbow_medial			r_elbow_lateral			r_forearm			r_wrist_radius			r_wrist_ulna			r_MCP_1			r_MCP_3			l_humerous			l_elbow_medial			l_elbow_lateral			l_forearm			l_wrist_radius			l_wrist_ulna			l_MCP_1			l_MCP_3			r_ASIS			r_PSIS			l_ASIS			l_PSIS			r_IC			l_IC			TS			AI			AA			
		X1	Y1	Z1	X2	Y2	Z2	X3	Y3	Z3	X4	Y4	Z4	X5	Y5	Z5	X6	Y6	Z6	X7	Y7	Z7	X8	Y8	Z8	X9	Y9	Z9	X10	Y10	Z10	X11	Y11	Z11	X12	Y12	Z12	X13	Y13	Z13	X14	Y14	Z14	X15	Y15	Z15	X16	Y16	Z16	X17	Y17	Z17	X18	Y18	Z18	X19	Y19	Z19	X20	Y20	Z20	X21	Y21	Z21	X22	Y22	Z22	X23	Y23	Z23	X24	Y24	Z24	X25	Y25	Z25	X26	Y26	Z26	X27	Y27	Z27	X28	Y28	Z28	X29	Y29	Z29	X30	Y30	Z30	X31	Y31	Z31	X32	Y32	Z32	X33	Y33	Z33	X34	Y34	Z34	X35	Y35	Z35	

26	0.125	180.7738	1371.7013	-233.541	318.3451	1321.8853	-230.3744	166.3093	1337.3592	-95.3049	198.883	1372.47	-80.1163	193.3946	1393.5012	-119.436	191.4996	1313.1786	-387.6252	226.153	1307.0956	-425.2101	249.4138	1348.092	-400.6192	385.7225	1130.8491	-217.6994	152.2778	1188.4132	-226.4518	271.0983	1474.6777	-76.9715	375.0628	1562.7866	-10.0399	318.547	1578.1575	11.1691	342.4491	1742.5029	29.7093	340.9438	1816.824	15.132	386.2921	1804.5251	35.5639	349.6717	1902.0231	19.8694	395.3422	1893.8866	32.9564	313.042	1119.3272	-424.728	261.9178	985.9354	-376.0544	255.8852	980.1341	-429.5186	301.748	834.435	-467.1607	350.9908	767.2057	-475.3351	310.1636	759.4557	-458.8834	360.4289	689.5565	-490.0693	319.8521	683.7165	-466.6297	348.5724	910.5469	-74.2832	163.2325	930.0905	-161.517	358.0303	892.5612	-331.6868	168.0326	922.8677	-262.9454	267.4978	971.9842	-48.1746	271.2391	938.8677	-372.0489	105.7445	1284.6587	-125.02	142.3793	1207.3818	-68.8765	157.3246	1373.848	-23.2657
27	0.13	180.7901	1371.704	-233.5562	318.3408	1321.8838	-230.3573	166.2813	1337.3592	-95.302	198.8946	1372.462	-80.122	193.3637	1393.4996	-119.4581	191.3962	1313.6403	-388.3552	226.1906	1307.1122	-425.2094	249.4516	1348.0906	-400.6202	385.7604	1130.8628	-217.6833	152.2733	1188.4177	-226.4636	271.0957	1474.6775	-76.9931	374.9936	1562.8461	-10.0204	318.5019	1578.2089	11.1505	342.4125	1742.5249	29.6607	340.8748	1816.827	15.0845	386.2911	1804.5453	35.5075	349.6235	1902.0759	19.8095	395.3247	1893.9165	32.9013	313.1013	1119.3046	-424.7261	261.9347	985.932	-376.0652	255.912	980.1504	-429.5063	301.9296	834.5576	-467.1344	351.0737	767.1805	-475.3161	310.1786	759.4678	-458.8763	360.4196	689.3413	-489.3947	319.857	683.7299	-466.6341	348.5535	910.5453	-74.2704	163.2497	930.0829	-161.5225	357.9983	892.5867	-331.6968	168.0213	922.8702	-262.9549	267.4925	972.0109	-48.1598	271.2027	938.9205	-372.0828	105.7229	1284.6355	-124.9935	142.3444	1207.8431	-68.2977	157.3174	1373.8026	-23.1942
28	0.135	180.7678	1371.7086	-233.5718	318.3379	1321.9044	-230.3587	166.2721	1337.3678	-95.2923	198.8716	1372.462	-80.1278	193.4024	1393.5115	-119.4601	191.5367	1313.1997	-387.6408	226.2348	1307.1442	-425.2113	249.4817	1348.1039	-400.6132	385.7768	1130.9019	-217.6606	152.2706	1188.4152	-226.4579	271.0934	1474.6892	-77.0126	374.984	1562.8749	-10.0702	318.4701	1578.2416	11.1425	342.3808	1742.5642	29.6275	340.8614	1816.8616	15.0236	386.2438	1804.5621	35.4882	349.6055	1902.0182	19.7459	395.2933	1893.9702	32.8672	313.141	1119.3157	-424.7047	261.9614	985.9318	-376.0446	255.9371	980.1829	-429.4984	301.7898	834.4746	-467.1584	351.0802	767.2247	-475.3159	310.195	759.4681	-458.8791	360.4362	689.3721	-489.4098	319.8646	683.725	-466.6162	348.5545	910.5359	-74.3003	163.2472	930.1028	-161.4896	357.9954	892.5872	-331.6628	168.0414	922.8528	-262.9203	267.5582	972.0551	-48.1564	271.1392	939.0047	-372.0735	105.6933	1284.6155	-124.985	142.3351	1207.7778	-68.2996	157.3199	1373.7367	-23.1629
29	0.14	180.7881	1371.7179	-233.5637	318.3271	1321.8965	-230.3411	166.2454	1337.3665	-95.29	198.8619	1372.4801	-80.1097	193.356	1393.5261	-119.4621	191.569	1313.225	-387.6427	226.2675	1307.1448	-425.2094	249.5157	1348.1246	-400.6144	385.7674	1130.9126	-217.6128	152.2777	1188.429	-226.4908	271.1243	1474.701	-77.0449	374.9156	1562.8658	-9.9652	318.4365	1578.2541	11.1184	342.3293	1742.5942	29.6272	340.8306	1816.8884	14.9791	386.2299	1804.6414	35.4058	349.5541	1902.1638	19.7095	395.2847	1893.9697	32.8094	313.1531	1119.3387	-424.6907	261.9782	985.9465	-376.0649	256.1049	980.6489	-429.5295	301.8115	834.4882	-467.1766	351.1375	767.1989	-475.3579	310.1909	759.5055	-458.9087	360.4004	689.6863	-490.0597	319.9024	683.7505	-466.6249	348.5934	910.5802	-74.2702	163.2686	930.0867	-161.4652	357.9913	892.6204	-331.6592	168.0508	922.869	-262.9143	267.4899	972.1006	-48.1651	271.1892	938.9773	-372.0672	105.6887	1284.6199	-124.9654	142.3328	1207.7938	-68.2725	157.3613	1373.6953	-23.1502
30	0.145	180.7901	1371.7067	-233.5839	318.3118	1321.9193	-230.352	166.2537	1337.3973	-95.2807	198.8592	1372.4876	-80.1235	193.3549	1393.5286	-119.4811	191.5881	1313.2421	-387.6453	226.2919	1307.1749	-425.2021	249.5506	1348.1384	-400.6114	385.7494	1130.9094	-217.5888	152.272	1188.4153	-226.4789	271.1268	1474.7022	-77.071	374.8869	1562.9181	-9.9687	318.3834	1578.2693	11.1056	342.298	1742.6135	29.5692	340.8052	1816.9009	14.9175	386.1746	1804.632	35.4006	349.5435	1902.1128	19.6589	395.2417	1894.0386	32.7807	313.2046	1119.3411	-424.662	262.0253	985.9562	-376.0476	256.0076	980.1952	-429.5319	302.0028	834.6051	-467.1595	351.1323	767.2819	-475.3153	310.2344	759.488	-458.8838	360.4915	689.3998	-489.3948	319.921	683.7552	-466.634	348.6342	910.6056	-74.3144	163.2929	930.093	-161.4485	358.0295	892.6146	-331.6463	168.0778	922.8662	-262.9065	267.4922	972.1169	-48.1281	271.1401	939.0448	-372.0296	105.6726	1284.6105	-124.9369	142.3373	1207.7744	-68.278	157.3688	1373.6777	-23.1272
31	0.15	180.7798	1371.6978	-233.5699	318.3096	1321.9202	-230.3159	166.2595	1337.3955	-95.2872	198.8275	1372.4976	-80.0916	193.3157	1393.5474	-119.4661	191.4742	1313.7365	-388.4142	226.3497	1307.1941	-425.2203	249.5595	1348.0941	-400.6043	385.7893	1130.9342	-217.5189	152.2791	1188.4436	-226.4991	271.1281	1474.7117	-77.0918	374.8601	1562.9446	-9.9598	318.3711	1578.2709	11.0544	342.2511	1742.6503	29.4859	340.7776	1816.9215	14.8504	386.1635	1804.6691	35.3547	349.5159	1902.1226	19.6012	395.221	1894.0325	32.7311	313.2196	1119.3865	-424.6391	262.0428	985.9629	-376.0595	256.0647	980.2191	-429.5465	302.02	834.6253	-467.174	351.1692	767.2761	-475.3186	310.2618	759.5173	-458.8833	360.4349	689.7062	-490.0436	319.9429	683.7784	-466.5961	348.6787	910.6166	-74.2791	163.3254	930.088	-161.4426	357.995	892.6337	-331.6467	168.0809	922.8538	-262.9058	267.5922	972.0468	-48.1179	271.1019	939.1169	-372.0605	105.6751	1284.611	-124.9054	142.2116	1207.9915	-67.8426	157.3731	1373.6821	-23.1189
32	0.155	180.7604	1371.7178	-233.5416	318.281	1321.9319	-230.2832	166.2401	1337.3799	-95.2653	198.8145	1372.4994	-80.104	193.3168	1393.545	-119.4808	191.5727	1313.6941	-388.3858	226.3479	1307.1991	-425.211	249.6443	1348.1782	-400.5906	385.7589	1130.9434	-217.5117	152.2585	1188.4534	-226.4959	271.1367	1474.7133	-77.1152	374.8541	1562.9431	-9.9177	318.3321	1578.3061	11.0654	342.1757	1742.562	29.4745	340.7607	1816.9597	14.7982	386.109	1804.6934	35.3255	349.4896	1902.1245	19.5494	395.1726	1894.1046	32.6969	313.2568	1119.4159	-424.6332	262.0571	985.9864	-376.0574	256.1044	980.2105	-429.5419	301.8703	834.5356	-467.1923	351.1462	767.3276	-475.2932	310.2935	759.5427	-458.8563	360.5149	689.4374	-489.3891	319.9635	683.7855	-466.6326	348.655	910.5833	-74.2766	163.3258	930.0975	-161.419	358.0428	892.6646	-331.6354	168.0764	922.8395	-262.8918	267.5315	972.1136	-48.1213	271.075	939.1406	-372.0174	105.6473	1284.6121	-124.9096	142.2804	1207.7128	-68.3095	157.4103	1373.6954	-23.0799
33	0.16	180.7903	1371.725	-233.5696	318.3033	1321.9508	-230.254	166.2375	1337.3987	-95.2434	198.8122	1372.5031	-80.1127	193.3028	1393.5594	-119.4703	191.7152	1313.2754	-387.6804	226.3856	1307.227	-425.1923	249.6567	1348.1899	-400.5918	385.7968	1130.9675	-217.4681	152.2455	1188.4568	-226.5035	271.1654	1474.7169	-77.1422	374.8471	1562.9884	-9.9382	318.2828	1578.3163	11.0249	342.1513	1742.5789	29.4281	340.7644	1816.9644	14.744	386.0881	1804.6987	35.2905	349.499	1902.0859	19.4698	395.1263	1894.102	32.6382	313.2828	1119.4093	-424.6382	262.0941	985.9849	-376.067	256.2676	980.723	-429.5796	302.0937	834.6502	-467.175	351.1994	767.3037	-475.2704	310.3014	759.5692	-458.8964	360.4966	689.7415	-490.0742	319.9918	683.7783	-466.5984	348.7045	910.6011	-74.2679	163.3307	930.1089	-161.4149	358.0715	892.6572	-331.6157	168.0996	922.8546	-262.8914	267.5617	972.115	-48.1091	271.1583	939.1269	-371.999	105.6322	1284.6105	-124.9008	142.3112	1207.7406	-68.3069	157.38	1373.6437	-23.0068
34	0.165	180.7626	1371.7219	-233.5648	318.2978	1321.9432	-230.2444	166.2479	1337.3871	-95.258	198.7836	1372.4994	-80.1025	193.2932	1393.5626	-119.4705	191.7553	1313.2893	-387.6821	226.4573	1307.2357	-425.2206	249.7296	1348.2223	-400.5914	385.7644	1130.9686	-217.4229	152.2446	1188.4479	-226.518	271.1712	1474.7251	-77.1703	374.8099	1562.9099	-9.9026	318.2633	1578.349	11.0338	342.1555	1742.6099	29.3899	340.7307	1816.9738	14.7195	386.0958	1804.7482	35.2347	349.4413	1902.2496	19.4101	395.0933	1894.0824	32.5834	313.3195	1119.4574	-424.6487	262.0973	986.009	-376.0889	256.1664	980.2709	-429.5593	302.1187	834.6572	-467.1708	351.2228	767.3074	-475.3088	310.3312	759.5883	-458.8841	360.5813	689.7219	-490.0369	320.0038	683.7941	-466.6028	348.6532	910.5813	-74.234	163.352	930.1073	-161.3878	358.0306	892.643	-331.5999	168.1161	922.8438	-262.8773	267.4875	972.1488	-48.0849	271.226	939.0884	-371.9763	105.6659	1284.6271	-124.8806	142.2446	1207.7474	-68.2331	157.3777	1373.6385	-22.9713
